/vscmnt/brussel_pixiu_data/_data_brussel/112/vsc11236/PredSimResults/SUBJ06mtu3D/weighted-LRposFixed/expIG/worker_03.mot
version=1
nRows=10
nColumns=50
inDegrees=yes
endheader
                time	         pelvis_tilt	         pelvis_list	     pelvis_rotation	           pelvis_tx	           pelvis_ty	           pelvis_tz	       hip_flexion_r	     hip_adduction_r	      hip_rotation_r	        knee_angle_r	       ankle_angle_r	         mtp_angle_r	       hip_flexion_l	     hip_adduction_l	      hip_rotation_l	        knee_angle_l	       ankle_angle_l	         mtp_angle_l	    lumbar_extension	      lumbar_bending	     lumbar_rotation	 ercspn_r/activation	 intobl_r/activation	 extobl_r/activation	    abd_r/activation	    add_r/activation	hamstrings_r/activation	bifemsh_r/activation	glut_max_r/activation	iliopsoas_r/activation	rect_fem_r/activation	  vasti_r/activation	gastroc_r/activation	 soleus_r/activation	tib_ant_r/activation	 ercspn_l/activation	 intobl_l/activation	 extobl_l/activation	    abd_l/activation	    add_l/activation	hamstrings_l/activation	bifemsh_l/activation	glut_max_l/activation	iliopsoas_l/activation	rect_fem_l/activation	  vasti_l/activation	gastroc_l/activation	 soleus_l/activation	tib_ant_l/activation	
          1.93154004	         -7.99922111	          4.65246058	         -9.66005150	          2.16332485	          0.92619997	          0.01684289	        -10.18215387	         -4.78315905	          8.11087549	         -6.05855893	         10.19833349	         29.26821348	         31.47576204	          0.44603245	         -6.32875105	         -1.28921909	          6.60936562	          0.21161574	         -1.54792345	         -2.46975050	          3.05604327	          0.05501971	          0.01000000	          0.01000000	          0.06485062	          0.01148656	          0.01871385	          0.14840666	          0.05753752	          0.44860848	          0.01000021	          0.01000005	          0.37311593	          0.33558072	          0.01826051	          0.10253644	          0.17246761	          0.03150904	          0.01000007	          0.09360211	          0.09008072	          0.23145194	          0.01000000	          0.10310290	          0.01000006	          0.01000000	          0.02587271	          0.01000000	          0.28493876	
          1.94441698	         -8.10812699	          4.59224091	         -9.72220116	          2.18063528	          0.92394438	          0.01650571	        -10.50828843	         -4.77627867	          7.70879433	         -7.22499359	          9.57324357	         31.20604696	         31.67043983	          0.55561439	         -6.03980070	         -3.10530975	          6.18985444	          0.21195356	         -1.25873073	         -2.81928834	          3.20484973	          0.09208741	          0.01000000	          0.01000001	          0.05339189	          0.04446255	          0.01540730	          0.12218407	          0.04737097	          0.46318179	          0.01000026	          0.01000003	          0.34463673	          0.31786599	          0.01503398	          0.08441886	          0.15210057	          0.02594158	          0.00999999	          0.14007918	          0.08145872	          0.19055576	          0.05369064	          0.08488522	          0.01000008	          0.01000000	          0.02925897	          0.01792231	          0.29363895	
          1.95729391	         -8.19571472	          4.52080196	         -9.72407134	          2.19839819	          0.92193523	          0.01608466	        -10.73128555	         -4.74195220	          7.27196469	         -8.66319368	          8.79228681	         33.19953377	         31.66067845	          0.65823567	         -5.73205045	         -4.81518822	          5.72780434	          0.19583434	         -0.94772177	         -3.17039857	          3.33002031	          0.09983547	          0.01000000	          0.01000001	          0.04395785	          0.03814316	          0.02022934	          0.10059486	          0.03900080	          0.45270000	          0.01000020	          0.02176472	          0.30926861	          0.29450158	          0.01237757	          0.07262465	          0.12522530	          0.02135785	          0.05041084	          0.11532803	          0.07926786	          0.15688576	          0.09898995	          0.06988649	          0.01000001	          0.01000000	          0.02408908	          0.01475554	          0.34776068	
          1.97017084	         -8.26454708	          4.43491393	         -9.66517965	          2.21634838	          0.92040658	          0.01555200	        -10.76375792	         -4.67004690	          6.80842845	        -10.47785757	          7.79748835	         35.23955485	         31.46957837	          0.77814430	         -5.47359524	         -6.21606119	          5.10328114	          0.17235923	         -0.64301261	         -3.51578060	          3.42576841	          0.12958238	          0.01000000	          0.01000001	          0.03619075	          0.04943631	          0.02216647	          0.08282033	          0.03210958	          0.44337339	          0.01214666	          0.01791906	          0.25462264	          0.25734348	          0.01019052	          0.08510112	          0.10309871	          0.01758404	          0.10838076	          0.13903437	          0.07199550	          0.12916497	          0.14600924	          0.05753795	          0.01000001	          0.01000000	          0.01983268	          0.01214833	          0.38283293	
          1.98304778	         -8.31379705	          4.33827666	         -9.54934392	          2.23424797	          0.91952554	          0.01492734	        -10.52009904	         -4.55635066	          6.31736240	        -12.78942443	          6.58634005	         37.22553432	         31.17974124	          0.91670091	         -5.25828576	         -7.50131310	          4.62230900	          0.14130822	         -0.36511810	         -3.86208923	          3.48731362	          0.16055717	          0.01000000	          0.01000001	          0.02979606	          0.06817676	          0.02245640	          0.06818647	          0.02643600	          0.41736496	          0.01000048	          0.01475287	          0.20963229	          0.21187237	          0.00999999	          0.08275338	          0.08488177	          0.01447705	          0.14865334	          0.15936008	          0.06399661	          0.10634228	          0.17727952	          0.04737133	          0.01000002	          0.01000010	          0.01632837	          0.01000200	          0.40395071	
          1.99592471	         -8.34262484	          4.23501370	         -9.37896934	          2.25189843	          0.91936142	          0.01423524	         -9.93730712	         -4.40204177	          5.78932596	        -15.68139475	          5.17958615	         38.96256678	         30.84088036	          1.06877627	         -5.07264283	         -8.74975718	          4.35136629	          0.11890247	         -0.12957437	         -4.21583923	          3.51115090	          0.17699798	          0.01000000	          0.01000001	          0.02453127	          0.09618492	          0.03210939	          0.05613835	          0.02176491	          0.37102270	          0.01000001	          0.01214612	          0.17259147	          0.17443575	          0.00999999	          0.07958445	          0.06988365	          0.01191904	          0.16845430	          0.14178683	          0.06354726	          0.08755222	          0.18438390	          0.03900109	          0.01000001	          0.07844785	          0.01344325	          0.01000002	          0.41145352	
          2.00880164	         -8.35259066	          4.11876358	         -9.15731326	          2.26915413	          0.91996243	          0.01351742	         -8.99013834	         -4.20528997	          5.20755128	        -19.16906350	          3.65301263	         40.03879391	         30.42064205	          1.22584247	         -4.89188612	         -9.86565391	          4.22001567	          0.09751311	          0.05243427	         -4.57264487	          3.49591344	          0.18536916	          0.01000000	          0.01000001	          0.02019673	          0.11497941	          0.02643586	          0.04621923	          0.01791918	          0.30591090	          0.01000000	          0.00999999	          0.14209556	          0.14361396	          0.01000000	          0.06552238	          0.05753561	          0.01000000	          0.16908045	          0.11673392	          0.05832921	          0.07208226	          0.17179732	          0.03210982	          0.01000001	          0.15191424	          0.01106792	          0.01000005	          0.40719718	
          2.02167858	         -8.34549054	          3.97957273	         -8.88713165	          2.28596105	          0.92132258	          0.01280082	         -7.69786110	         -3.97236735	          4.56576677	        -23.19608698	          2.07642072	         40.04617828	         29.86836613	          1.38066579	         -4.68632631	        -10.75478082	          4.23937788	          0.08173940	          0.17695870	         -4.92075567	          3.44237222	          0.19237394	          0.01000000	          0.01000001	          0.01662809	          0.12539113	          0.02176481	          0.05404562	          0.01475296	          0.25185821	          0.01000000	          0.00999999	          0.11698809	          0.11823820	          0.00999999	          0.05394496	          0.04736940	          0.01000000	          0.16286220	          0.09610771	          0.05551272	          0.05934575	          0.15558331	          0.02643620	          0.01000001	          0.19387693	          0.01000007	          0.01000010	          0.39314909	
          2.03455551	         -8.32303480	          3.80524538	         -8.56926067	          2.30234202	          0.92335859	          0.01209981	         -6.12069001	         -3.70930924	          3.88514409	        -27.58703069	          0.25609639	         39.12210348	         29.15373959	          1.52162388	         -4.43489366	        -11.36347241	          4.38601370	          0.07371656	          0.24784305	         -5.24377269	          3.35095624	          0.19343528	          0.01000000	          0.01000001	          0.01369000	          0.13495613	          0.01791909	          0.07848526	          0.01214620	          0.20735632	          0.01000000	          0.00999999	          0.09631697	          0.09734619	          0.01000000	          0.04441320	          0.03899950	          0.01000000	          0.15494645	          0.07912603	          0.05406552	          0.04885971	          0.13926703	          0.02176508	          0.01000001	          0.20889391	          0.01000002	          0.01000001	          0.37392479	
          2.04743245	         -8.28665593	          3.58191071	         -8.20398278	          2.31832673	          0.92593204	          0.01142623	         -4.32708600	         -3.41263748	          3.19647186	        -32.15851149	         -1.86589287	         37.27600179	         28.28174394	          1.63097790	         -4.12147783	        -11.69839017	          4.61972432	          0.07340071	          0.26869791	         -5.52388822	          3.22167532	          0.19165495	          0.01000000	          0.01000261	          0.01127106	          0.13897833	          0.01475290	          0.06955449	          0.01000004	          0.17071766	          0.01000000	          0.00999999	          0.07929832	          0.08014568	          0.03244230	          0.03656565	          0.03210852	          0.01000000	          0.15423571	          0.06514492	          0.04916653	          0.04022649	          0.12179440	          0.01791932	          0.01000001	          0.20586722	          0.01000001	          0.01000001	          0.34844767	
